<?xml version="1.0" encoding="UTF-8" standalone="no"?>
<svg width="146px" height="88px" viewBox="0 0 146 88" version="1.1" xmlns="http://www.w3.org/2000/svg" xmlns:xlink="http://www.w3.org/1999/xlink">
    <!-- Generator: Sketch 49.1 (51147) - http://www.bohemiancoding.com/sketch -->
    <title>logo</title>
    <desc>Created with Sketch.</desc>
    <defs>
        <filter x="-1.3%" y="-23.3%" width="102.6%" height="158.1%" filterUnits="objectBoundingBox" id="filter-1">
            <feOffset dx="0" dy="5" in="SourceAlpha" result="shadowOffsetOuter1"></feOffset>
            <feGaussianBlur stdDeviation="7.5" in="shadowOffsetOuter1" result="shadowBlurOuter1"></feGaussianBlur>
            <feColorMatrix values="0 0 0 0 0.498039216   0 0 0 0 0.694117647   0 0 0 0 0.874509804  0 0 0 0.3 0" type="matrix" in="shadowBlurOuter1" result="shadowMatrixOuter1"></feColorMatrix>
            <feMerge>
                <feMergeNode in="shadowMatrixOuter1"></feMergeNode>
                <feMergeNode in="SourceGraphic"></feMergeNode>
            </feMerge>
        </filter>
        <path d="M7.96417433,29.7731152 C7.63003487,29.4906019 7.30211629,29.1966424 6.98092346,28.8912238 C-1.09457409,21.2123261 -2.1494992,8.92258929 4.01816264,0.0463721601 L23.370432,0.0463721601 L23.370432,29.7731152 L7.96417433,29.7731152 Z" id="path-2"></path>
        <path d="M4.98256684,22.2363769 C2.27225908,18.9978683 0.621363402,15.1588709 0.0416821459,11.188194 L0.0416821459,4.71345644 C0.271727949,3.13863113 0.670816959,1.58285701 1.23968097,0.0752721772 L15.2950129,0.0752721772 L15.2950129,22.2363769 L4.98256684,22.2363769 Z" id="path-4"></path>
        <polygon id="path-6" points="10.3044829 0.114235079 10.3044829 26.0051159 0.0533521477 26.0051159 0.0533521477 0.114235079 10.3044829 0.114235079"></polygon>
    </defs>
    <g id="symbols" stroke="none" stroke-width="1" fill="none" fill-rule="evenodd">
        <g id="_top_logged" transform="translate(-375.000000, -3.000000)">
            <g filter="url(#filter-1)" id="_top">
                <g>
                    <g id="logo" transform="translate(390.000000, 13.000000)">
                        <g id="Group-11" transform="translate(0.000000, 11.000000)">
                            <path d="M58.5865619,46.1524327 C58.5865619,45.6733943 47.6352175,45.2849582 34.1260141,45.2849582 C20.6168106,45.2849582 9.66546622,45.6733943 9.66546622,46.1524327 C9.66546622,46.6314712 20.6168106,47.0199072 34.1260141,47.0199072 C47.6352175,47.0199072 58.5865619,46.6314712 58.5865619,46.1524327" id="Fill-1" fill="#141137"></path>
                            <path d="M40.3708855,39.5119065 C31.4998349,48.8410022 16.6926116,49.2137241 7.36327029,40.342428 C-1.96594826,31.4713774 -2.33854736,16.6641541 6.5325032,7.33493557 C15.4036765,-1.99440575 30.2110226,-2.36712761 39.5401184,6.50404571 C48.8694597,15.3753418 49.2421816,30.1825651 40.3708855,39.5119065" id="Fill-3" fill="#141137"></path>
                            <path d="M38.5516688,7.02991993 C29.6326162,-1.45122132 15.5268859,-1.09617796 7.04574465,7.82287466 C-1.4353966,16.7419273 -1.08035324,30.8476576 7.83869938,39.3287989 C16.757752,47.8099401 30.8634823,47.4548968 39.3446236,38.5358441 C47.8257648,29.6166687 47.4707215,15.5110612 38.5516688,7.02991993" id="Fill-5" fill="#FEC30C"></path>
                            <path d="M38.5516688,7.02991993 C29.6326162,-1.45122132 15.5268859,-1.09617796 7.04574465,7.82287466 C-1.4353966,16.7419273 -1.08035324,30.8476576 7.83869938,39.3287989 C16.757752,47.8099401 30.8634823,47.4548968 39.3446236,38.5358441 C47.8257648,29.6166687 47.4707215,15.5110612 38.5516688,7.02991993" id="Fill-7" fill="#F79A1C"></path>
                            <path d="M28.7616305,1.60118172 C30.8804733,2.59351073 32.880109,3.93278044 34.668953,5.63384573 C43.5880056,14.114987 43.9430489,28.2205945 35.4619077,37.1397699 C29.6915937,43.2079177 21.3186105,45.3073632 13.7459481,43.3613769 C22.1917324,47.3166975 32.5644739,45.6660896 39.3446727,38.535881 C47.8258139,29.6167056 47.4707706,15.511098 38.551718,7.02995676 C35.7008131,4.31900673 32.3191847,2.51543065 28.7616305,1.60118172" id="Fill-9" fill="#F26D31"></path>
                        </g>
                        <g id="Group-18" transform="translate(1.000000, 21.000000)">
                            <g id="Group-14">
                                <mask id="mask-3" fill="white">
                                    <use xlink:href="#path-2"></use>
                                </mask>
                                <g id="Clip-13"></g>
                                <path d="M14.8307087,29.4733378 C8.39904669,31.1065127 1.50749791,25.9019109 -0.531546072,17.8714489 C-2.57071282,9.84123233 1.0030466,1.97932991 7.43458588,0.346155 C13.8664935,-1.28701991 20.7580422,3.91745907 22.7970862,11.9477984 C24.836253,19.9782605 21.2624935,27.8401629 14.8307087,29.4733378" id="Fill-12" fill="#FEFEFE" mask="url(#mask-3)"></path>
                            </g>
                            <g id="Group-17" transform="translate(0.245535, 4.787929)">
                                <mask id="mask-5" fill="white">
                                    <use xlink:href="#path-4"></use>
                                </mask>
                                <g id="Clip-16"></g>
                                <path d="M1.91482791,9.25004584 C2.3017908,11.1513448 4.79531974,11.5704727 6.46630701,10.5646393 C8.0087568,9.63602659 9.38399737,6.7233697 8.98168855,4.82980511 C8.61817424,3.11891843 7.08689629,1.8761439 4.47428295,3.65430712 C2.241512,5.17404494 1.57267513,7.56850058 1.91482791,9.25004584 M12.229255,14.9891769 C11.5779738,12.6363394 8.28657946,11.8755498 6.25134127,12.9804565 C4.43671612,13.9655422 3.81956433,17.0014576 4.45095714,18.5624453 C5.11782974,20.2108433 6.88310238,20.9112314 9.14914331,19.9692371 C11.4714117,19.0036713 12.7664852,16.9307436 12.229255,14.9891769 M2.56893269,20.0303752 C1.56248543,18.0842662 3.54640684,14.4007527 3.56212107,13.4769279 C3.5623666,13.4661244 3.51731096,13.4111246 3.50257887,13.4049862 C2.32266126,12.9147759 0.584642979,12.5829356 0.222970177,11.0386443 C-0.468333131,8.0864563 0.802677906,3.87381526 4.2902546,1.59426991 C8.66187944,-1.26338718 11.6214335,0.311718741 12.1460186,3.0161621 C12.4943098,4.81163553 9.74775722,8.13335345 9.25496882,10.0008913 C9.25042642,10.0178333 9.27141965,10.0940718 9.2798906,10.0999647 C10.2168515,10.7533328 14.6749046,10.9497607 15.181934,13.3396739 C15.8748333,16.6049188 13.3011372,20.0541921 9.71399618,21.4926579 C6.20579456,22.8993269 3.71938613,22.254798 2.56893269,20.0303752" id="Fill-15" fill="#F79A1C" mask="url(#mask-5)"></path>
                            </g>
                        </g>
                        <g id="Group-83" transform="translate(14.000000, 0.000000)">
                            <g id="Group-21" fill="#141137">
                                <path d="M43.4548152,8.25867442 C43.4330854,7.77226993 43.1896376,7.3398831 42.7820498,7.05481716 C42.8359447,6.8041261 42.8385228,6.54373642 42.7859783,6.28543378 C42.6612466,5.67061457 42.2378218,5.16358515 41.6183375,4.89116426 C41.3206265,4.76238124 41.006833,4.69706898 40.6865328,4.69706898 C39.9440355,4.69706898 39.2581339,5.06058329 38.8736264,5.63108346 C38.7695196,5.58357248 38.6600111,5.54404137 38.5457146,5.51322675 C38.3408158,5.45773588 38.1303925,5.42949937 37.9200919,5.42949937 C37.0495482,5.42949937 36.2831112,5.90424096 36.0030787,6.61371385 C35.7447761,7.2249728 35.2598448,7.69468092 34.6765768,8.18243586 C34.5601933,8.09649867 34.431042,8.02222439 34.2909644,7.96194558 C33.8919703,7.77804 33.4313469,7.7396138 33.1154664,7.7396138 C32.8770521,7.7396138 32.6326221,7.76023872 32.3932257,7.80124304 C31.9916535,7.86802851 31.584434,8.01498111 31.2125715,8.2274915 C30.3225077,8.73967715 29.9586251,9.41146044 30.2060014,10.0487461 C30.3449741,10.4295706 30.6118705,10.7110763 30.9757531,10.8649039 C31.0537104,11.02266 31.1698484,11.2580051 31.2575043,11.5278479 C31.30833,11.6805706 31.3478612,11.8180701 31.3681178,11.8917305 C31.4628942,12.3208026 31.6956612,12.666884 31.9656268,12.9487579 C31.6674247,14.5859842 31.7635516,16.0564923 31.8650803,17.6027478 C31.8774798,17.7957382 31.8244443,17.8809388 31.7650248,17.9445323 C31.6035857,18.1164067 31.1672703,18.3173769 30.4668822,18.3173769 C30.07108,18.3173769 29.6677891,18.2494866 29.3314064,18.1264736 C28.8048569,17.9339743 27.7268363,17.6576249 26.475468,17.387291 C26.5308361,17.1907404 26.5400437,16.9836318 26.5037045,16.7841347 C27.1544946,16.4402632 27.8291015,15.7706897 28.216801,14.4822457 C28.3808183,13.9377722 28.4715434,12.8946175 28.1482968,12.0552567 C28.1929842,12.0092189 28.2364438,11.9624445 28.2792896,11.9149335 C28.3125596,11.8776123 28.343497,11.8384494 28.3583519,11.8165968 C28.6296678,11.5007163 28.8477028,11.1818893 29.0249789,10.8419463 C29.2277907,10.4531419 29.3848102,10.0268935 29.4922317,9.57572324 C29.5451444,9.35302315 29.5868854,9.11976507 29.6165951,8.88294672 C29.8138823,7.31373364 29.38702,5.73592684 28.3822915,4.31992748 C28.2444237,4.1254639 28.0883863,3.92633515 27.9179851,3.72794301 C27.7188564,3.49578983 27.509538,3.27517679 27.3169159,3.09311272 L27.2662129,3.04523343 C27.1272402,2.91436336 26.9821291,2.78705355 26.8338261,2.6636723 C26.7122864,2.56214365 26.5870636,2.46307035 26.4593855,2.36657516 C26.2522769,2.20992394 26.0336281,2.05720128 25.8098231,1.9135634 C25.6567321,1.8148584 25.4997126,1.71983642 25.336432,1.62591935 C25.2447247,1.5737432 25.1522808,1.52254919 25.0597142,1.47282839 C24.8427842,1.35644488 24.6200841,1.24435823 24.3919822,1.14061977 C24.2522729,1.07678071 24.1112132,1.01576531 23.9697851,0.958187389 C22.9519205,0.541392019 21.8640784,0.258167595 20.7364597,0.116616766 C20.5187931,0.089485168 20.302968,0.0694740795 20.0882478,0.0531460135 L19.9312283,0.0419741788 C19.7200683,0.0284697633 19.5097677,0.0186483702 19.2941882,0.0154564174 L19.1379052,0.0143515107 C18.9718009,0.0143515107 18.8066788,0.0179117657 18.6383646,0.024541206 L18.5255414,0.0288380655 C18.3141359,0.0390277609 18.1040808,0.0527777112 17.8962356,0.0727887997 C13.5751909,0.492776123 10.3869212,3.03983166 9.96275979,6.41139315 C9.80107511,7.69971439 10.0089203,8.85679726 10.6128132,9.95728436 C10.0662527,10.4436889 9.73723605,11.1202601 9.61532801,11.5268657 C9.42638896,12.157522 9.33713705,13.9976827 10.2340758,14.824644 L9.88959041,16.044461 L9.87903241,16.1145612 C9.81740317,16.526937 9.90481357,16.9452056 10.1264088,17.2995123 C9.60477001,17.4080387 9.14341007,17.4990094 8.75129095,17.5563417 C5.8844263,17.9752242 0.526979124,21.7639493 0.0985208497,24.9033576 C-0.408140268,28.6201411 1.57651775,31.2288259 2.70966098,32.5959638 C0.775583137,34.1734023 1.41004513,35.7661867 1.64809115,36.2112186 L1.67559105,36.2604483 C1.71917348,36.3391422 1.76717554,36.416854 1.82696327,36.5035278 L1.86195198,36.5528803 C1.90909467,36.6178243 1.95906101,36.681295 2.01884874,36.7520091 L2.05371468,36.7930134 C2.18335707,36.939966 2.32957306,37.0799208 2.47689396,37.1992507 L2.52415941,37.236572 C2.58738463,37.2870294 2.65220583,37.3356453 2.7084333,37.3748081 L2.77350003,37.419741 C2.83537481,37.4622185 2.89823172,37.5024863 2.95900159,37.5390709 L3.01817549,37.5750418 C3.17777313,37.6689589 3.34547341,37.7541595 3.51685672,37.8292931 L3.57075162,37.8513912 C3.63581835,37.8793822 3.70113061,37.9050406 3.77110804,37.9311901 L3.84390911,37.9569712 C3.90823924,37.979806 3.97256936,38.0005537 4.04168742,38.0211786 L4.10773629,38.0410669 C4.19097259,38.064761 4.27396336,38.0864908 4.35584923,38.1045377 L4.47517916,38.1310554 L4.48770143,38.1310554 C4.48770143,38.1310554 4.5812502,38.1473835 4.63084824,38.1549951 L4.69112704,38.1626066 C4.75201967,38.1705865 4.81217571,38.1767249 4.8882915,38.1832316 L4.96735372,38.1883878 C5.01707452,38.1908431 5.06569042,38.1919481 5.13505401,38.1919481 C5.13861426,38.1919481 5.24235272,38.1908431 5.24235272,38.1908431 C5.33270954,38.1872829 5.42085654,38.1800396 5.51035399,38.1677629 C5.90247311,38.1125175 6.49482588,38.0295268 7.1005603,37.8125967 C7.13726776,37.8005655 7.17274754,37.7871839 7.22934332,37.7658224 L7.28557079,37.7448291 C7.33087197,37.7277645 7.37592761,37.7103315 7.39188738,37.7027199 C7.42159709,37.691057 7.4513068,37.6787803 7.48040268,37.6667491 C7.96570227,38.7241448 8.44560009,39.7706142 8.91383501,40.8188024 L8.91886847,40.8518268 C8.97448211,41.2160778 9.10351066,42.0688202 9.39152301,43.1199548 C9.43436884,43.274519 9.48003832,43.43338 9.52939082,43.5948192 C9.75430072,44.3332652 10.0237752,45.0343899 10.3306937,45.6807603 C10.4166309,45.8607373 10.5069877,46.0409599 10.6026236,46.2205686 C10.8039621,46.5980784 11.0227336,46.9604878 11.2519404,47.2963795 C11.3734801,47.474515 11.5011583,47.6499496 11.6342381,47.8201053 C11.913534,48.1788316 12.2130865,48.5121452 12.523688,48.8107155 C12.9491999,49.219531 13.4108054,49.5786257 13.8980692,49.8796514 C14.0003345,49.9423855 14.104073,50.0030326 14.2070748,50.0599967 C14.7526532,50.3631095 15.3380082,50.6011555 15.9459525,50.7672598 C16.3289868,50.8721032 16.7283492,50.9507971 17.1320085,51.0005179 C17.5092727,51.0476606 17.9017601,51.0716002 18.2985444,51.0716002 L18.4200842,51.0708636 C19.4262859,51.0582186 20.5060253,50.8930964 21.6324163,50.5804078 C21.2754087,50.978788 20.916314,51.4023356 20.6214267,51.829689 C20.5481345,51.9358828 20.4796303,52.0410945 20.4150546,52.1470428 C19.4142547,53.7981417 20.0555917,54.781877 20.5275096,55.2218754 C20.808647,55.4837383 21.1709336,55.6277445 21.5478296,55.6277445 C21.8677615,55.6277445 22.1800818,55.5206913 22.4284402,55.3256139 C22.8043541,55.0299899 22.9983266,54.5624916 22.9482375,54.0755961 C22.9482375,54.0755961 22.9406259,53.8848155 23.3223098,53.4281207 C23.3523878,53.3919043 23.383939,53.3555652 23.4158585,53.3200854 C23.5769294,53.1387579 23.7738483,52.9431894 24.0204881,52.7204893 C24.113423,52.6360254 24.2090588,52.5518069 24.3062906,52.4677112 C24.4068371,52.381283 24.5094707,52.2946092 24.6117359,52.2090403 C24.8147932,52.0401123 25.0216563,51.8720437 25.2258185,51.7063077 L25.5798797,51.4179271 C25.7452475,51.2822691 25.9070549,51.1480843 26.0623557,51.0161093 C26.2236721,50.8782415 26.3778679,50.7425835 26.5232246,50.6080305 C26.6237711,50.5147272 26.719898,50.42302 26.8120963,50.3302078 C27.0209236,50.1197845 27.1899744,49.9256892 27.3299292,49.7371184 C27.8113003,49.0864511 27.9647595,48.4462191 27.7838004,47.8266119 C27.7674723,47.7714894 27.7478295,47.7167351 27.7231533,47.6565791 C27.6364795,47.4472606 27.5124844,47.2550068 27.3517818,47.0831325 C27.2981325,47.0258001 27.238222,46.968836 27.1689812,46.9092938 C27.1101756,46.8592047 27.0455999,46.8096067 26.9715711,46.7576761 C26.6313826,46.5219626 26.1874557,46.3300772 25.615114,46.1715844 C25.47786,46.1334038 25.3313985,46.0964508 25.1747473,46.0615848 C24.7880299,45.9745427 24.3463128,45.8980586 23.8623636,45.8342196 C23.3878676,45.7711171 22.9211059,45.7406708 22.4350697,45.7406708 C21.7658645,45.7406708 21.1705653,45.8008268 20.6758126,45.8600007 L20.2536155,45.9118086 C20.126674,45.9277683 20.0047659,45.9423777 19.8876458,45.9546544 L19.7273116,45.9698776 C19.6330262,45.9778574 19.5423011,45.9839958 19.4487523,45.9858373 L19.3385072,45.9862056 C19.2717217,45.9847324 19.2097242,45.9789623 19.150182,45.9684043 C19.0976375,45.9589513 19.065718,45.9474111 19.0453386,45.9372214 L19.0022472,45.9086166 C18.9862875,45.8944984 18.9597697,45.8679806 18.9141002,45.8030366 C18.8988771,45.7805702 18.8506295,45.6985616 18.8506295,45.6985616 C18.8274264,45.656084 18.8045917,45.6115195 18.7882636,45.5755486 L18.7747592,45.534176 C18.6362776,45.0954053 18.4802402,43.7946845 18.3761334,42.2152817 L18.3623835,42.0005615 L18.3312006,41.4252734 L17.2169635,41.450318 L18.1871944,41.3927401 L18.2224286,41.4085771 C18.2252523,41.4024387 18.2278304,41.3963003 18.2307768,41.390162 L18.3289907,41.3843919 L18.3221158,41.2055198 C18.9007186,40.1191509 20.0001008,39.5076464 21.489024,38.6792119 C23.4318183,37.5982448 25.8460395,36.2550466 28.3474256,33.2354592 L30.088513,31.6608444 C30.2568271,31.6415699 30.4668822,31.617262 30.7105755,31.5853424 C30.9065123,31.5595613 31.1244245,31.529115 31.3601379,31.4917937 C32.427355,31.3227429 33.4306103,31.0870295 34.3417901,30.7910373 C34.671175,30.6843524 34.9954038,30.5676006 35.3055143,30.4432372 C35.6443523,30.3075792 35.9711592,30.1617315 36.2761134,30.0104821 C38.2090864,29.0524052 39.5977086,27.7383028 40.4029401,26.1046368 C40.7856061,25.3276418 41.0351922,24.4748994 41.1450691,23.5696124 C41.209522,23.0374157 41.168886,21.9554665 40.076747,18.7141612 C39.6335567,17.3989539 39.1475205,16.1170166 38.8402337,15.3561042 C38.5330696,14.5943324 38.4343646,14.1565438 38.4028134,13.8824041 C38.8032807,13.6346595 39.3063815,13.3752519 39.8987343,13.0701749 C40.5799707,12.7194284 41.4275569,12.283113 42.3971739,11.7193651 C43.0137119,11.3693552 43.3645812,10.7995916 43.3354853,10.1952076 C43.3217353,9.90437161 43.222662,9.63452883 43.0550845,9.40777742 C43.3315567,9.06967596 43.4733531,8.67006803 43.4548152,8.25867442" id="Fill-19"></path>
                            </g>
                            <path d="M37.4354307,15.7728381 C36.6468956,13.8186264 36.9394503,13.3641415 37.0391375,12.4814438 L32.832512,12.4814438 C32.39546,14.2300201 32.4860624,15.7089991 32.6053923,17.5296398 C32.7265638,19.3772894 30.2110595,19.7703907 28.5771479,19.1727589 C27.3901098,18.7387761 22.0712116,17.546459 18.1325874,17.3842832 C14.1854923,17.2379445 10.603753,18.3575833 8.54101492,18.6591 C6.04650384,19.0237193 1.17509286,22.5332713 0.831344097,25.0539319 C0.25249574,29.2986152 3.34893545,31.8519319 3.94153376,32.8268279 C4.19001501,33.2353979 4.04637713,33.2946945 3.65057499,33.2772616 C3.46433682,33.2690361 3.23206088,33.3083217 3.09075558,33.4206539 C0.509693472,35.4700103 3.57912435,37.2620463 4.98395187,37.064268 C5.85609158,36.9415006 7.03011636,36.688968 7.58232419,36.0257784 C8.27178598,37.5323801 8.95425004,39.0062029 9.61572086,40.4894788 C9.70534108,40.6903263 10.6926366,52.4929399 21.132532,49.4586205 C27.8822844,47.4967973 18.9725621,52.5956963 20.9157247,54.4065156 C21.1433355,54.6186577 21.5000976,54.4993278 21.4684236,54.1897084 C21.1839715,51.4128322 31.2327299,47.9850433 23.3439414,46.9385738 C19.9840428,46.4928054 18.3039707,48.0699983 17.3929138,46.0141352 C17.0162633,45.1642164 16.8019114,41.025113 16.8348131,40.9519437 C18.3039707,37.6814198 22.6240333,37.990057 27.1682691,32.4634364 C27.6577428,31.8680144 29.0806171,30.6211886 29.2307617,30.5978627 C30.2109367,30.4456312 38.8753697,29.9672065 39.667465,23.4353663 C39.834306,22.0585297 38.0430066,17.2785805 37.4354307,15.7728381" id="Fill-22" fill="#7FB1DF"></path>
                            <path d="M6.58760122,34.3669451 C6.03551616,35.0301347 4.67107912,35.7565495 3.79893941,35.8793169 C3.35010174,35.9424193 2.73159951,35.8018507 2.18147873,35.5151887 C2.56721395,36.5293703 4.10278876,37.1882631 4.98401326,37.064268 C5.65837466,36.9693688 6.77568089,36.8229072 7.5822628,36.0257784 C7.34249804,35.5030348 6.82969856,34.8959499 6.58760122,34.3669451" id="Fill-24" fill="#2F94D1"></path>
                            <path d="M37.4354307,15.7728381 C36.6468956,13.8186264 36.9394503,13.3641415 37.0391375,12.4814438 L35.719265,12.4814438 C35.7230708,12.9582724 35.839086,13.5683037 36.2504796,14.5878871 C36.8579328,16.0935066 38.6493549,20.8735787 38.4823912,22.2502924 C37.6904186,28.7821327 28.6323933,29.5405898 27.6522182,29.6928214 C27.5019509,29.7161472 26.4727917,30.6830633 25.9831953,31.2783625 C21.4389594,36.8049832 17.1190197,36.4964687 15.6497393,39.7668698 C15.6169604,39.840162 15.8311895,43.9792653 16.2078399,44.8291841 C16.4976938,45.4830434 16.8657505,45.7687232 17.3404921,45.8695152 C16.9966206,44.7782357 16.8035074,41.0216756 16.8348131,40.9519437 C18.3039707,37.6814198 22.6240333,37.990057 27.1682691,32.4634364 C27.6577428,31.8680144 29.0806171,30.6211886 29.2307617,30.59774 C30.2109367,30.4456312 38.8753697,29.9672065 39.667465,23.4353663 C39.8344287,22.0585297 38.0430066,17.2784577 37.4354307,15.7728381" id="Fill-26" fill="#2F94D1"></path>
                            <path d="M36.846896,14.0256246 C36.6823877,14.6323411 35.8573906,14.9366816 35.0042799,14.7055105 C34.1511691,14.4742167 33.5928229,13.7948218 33.7573312,13.1881053 C33.9218396,12.5813887 34.7468366,12.2770483 35.5999474,12.5083421 C36.4530581,12.7395132 37.0112816,13.418908 36.846896,14.0256246" id="Fill-28" fill="#2F94D1"></path>
                            <path d="M31.396698,9.19345007 C31.0303601,9.40424172 30.8653607,9.62559136 30.8816887,9.66757782 C30.9120123,9.75044582 30.964925,9.83761069 31.1503038,9.87124896 C31.3564303,9.90857025 31.4800571,10.0250765 31.5220436,10.1949866 C31.5414408,10.2739261 31.7780136,10.6678867 31.9432586,11.176021 C32.0111489,11.3799377 32.0617291,11.5606513 32.0806353,11.6302605 C32.1903894,12.2018655 32.986536,12.6832366 33.8921913,13.2490716 C35.1188833,13.9959885 35.471103,14.4334088 36.8929952,13.3135245 C37.8217306,12.5860048 39.2713683,12.0313416 41.4756572,10.7501409 C41.9463474,10.4831218 41.9683228,10.0876879 41.578659,9.91311265 C41.188627,9.73448606 40.5927139,9.82275583 40.2112756,10.0681679 C39.3773165,10.6035566 38.6531116,11.0056199 38.0375558,11.3437213 C37.9970425,11.3661878 37.9388507,11.3600494 37.9082817,11.3314446 C37.8778353,11.3025942 37.8850786,11.2617127 37.924978,11.2394918 C38.8875973,10.7149066 40.1529611,9.98124856 41.6185584,8.89033732 C42.0425971,8.58317325 42.088021,8.15410114 41.7323638,7.94232735 C41.3732692,7.72858928 40.7915971,7.86068702 40.4418328,8.19473716 C39.3245266,9.23445438 39.7216791,8.78082879 41.0870983,7.24869146 C41.4951772,6.81556803 41.4072757,6.17889622 40.8046105,5.91420967 C40.1976484,5.65136464 39.5451396,5.92218956 39.3516581,6.39238875 C38.5783462,8.02323108 37.7348113,8.46605314 38.3610479,7.62043119 C38.641817,7.26256418 38.4457574,6.7403116 37.8831143,6.58881661 C37.3232949,6.43695332 36.7928169,6.69083633 36.6648933,7.03090207 C36.1833995,8.18737111 35.208749,8.8753597 34.241219,9.67383896 C34.1851143,9.71680755 34.1360073,9.75670696 34.0954941,9.78985416 C34.0763424,9.80556839 34.0565768,9.82214199 34.0387755,9.83638301 C33.9425259,9.81256614 33.887035,9.76014445 33.8962426,9.69004426 C33.954066,9.31474427 33.7011652,9.08087235 33.4534205,8.97418747 C33.1920487,8.85338433 32.7144835,8.81373046 32.2048759,8.90028148 C31.9306135,8.94595096 31.6449337,9.05153094 31.396698,9.19345007" id="Fill-30" fill="#7FB1DF"></path>
                            <path d="M24.9984655,16.8974122 L23.9996299,15.5764348 L19.3264883,15.0752983 C19.3484636,15.1500636 19.3601265,15.2272843 19.3601265,15.3065921 C19.3601265,15.932092 18.6458657,16.4391215 17.7650095,16.4391215 C16.8840306,16.4391215 16.1698925,15.932092 16.1698925,15.3065921 C16.1698925,15.1075861 16.2428164,14.9207341 16.3698806,14.7583128 L11.2369751,14.0584158 L10.6095108,16.2792783 C10.5864305,16.4345791 10.6217875,16.592458 10.7090752,16.7230825 C11.2397987,17.5167738 13.1221915,20.4534931 12.6765458,21.5360562 C12.2722727,22.5181955 10.9237954,22.3072811 10.9237954,22.3072811 C10.9237954,22.3072811 12.2996498,23.7302782 16.0770803,23.1134947 C18.9708311,22.6410857 21.193044,20.8504002 21.8218587,20.2974557 C21.9301396,20.2021882 22.088264,20.1929807 22.2073484,20.2741299 L22.5930836,20.5370977 C22.6914203,20.6041287 22.8254823,20.5765061 22.8891986,20.4760823 L25.0082869,17.1369314 C25.0553069,17.0629027 25.0513783,16.9673896 24.9984655,16.8974122" id="Fill-32" fill="#141137"></path>
                            <path d="M11.2369382,14.0583544 C11.2369382,14.0583544 12.0598482,18.8827454 15.9426132,19.8085345 C20.4352867,20.8796802 23.8883658,15.4982934 23.8883658,15.4982934 C23.8883658,15.4982934 24.1218694,16.0733359 24.8654716,16.0125661 C26.1254336,15.9098097 26.5894944,14.7889433 26.7784335,14.1612335 C26.9318927,13.6510121 26.9997831,12.2583386 26.3055334,11.949824 C25.7449774,11.7006062 25.3284275,11.949824 25.3284275,11.949824 C25.3284275,11.949824 23.6569492,7.06638185 17.2783227,7.21836791 C12.9598561,7.32124701 12.3683627,10.1498082 12.3683627,10.1498082 L12.2140441,10.7668372 C12.2140441,10.7668372 11.9569691,10.4068832 11.494136,10.5097623 C10.8911024,10.6438243 10.4393183,11.419346 10.3111492,11.846945 C10.1546207,12.3694431 10.2162499,13.639963 10.6197864,14.0069148 C10.9026426,14.2641126 11.2369382,14.0583544 11.2369382,14.0583544" id="Fill-34" fill="#7FB1DF"></path>
                            <path d="M17.974107,13.2354812 C17.974107,13.2354812 18.1797424,13.029723 18.9768712,12.926844 C19.7741228,12.8240876 19.9283187,13.1069438 20.4425914,13.0811626 C20.9569868,13.0555042 20.8541077,12.2840338 20.8541077,12.2840338 C20.8541077,12.2840338 19.8770019,11.8212006 19.234069,12.0269588 C18.5912588,12.2325942 17.974107,13.2354812 17.974107,13.2354812" id="Fill-36" fill="#141137"></path>
                            <path d="M16.1908612,13.1260218 C16.1908612,13.1260218 16.0782835,12.9661786 15.5625376,12.806581 C15.0466689,12.6469834 14.9121158,12.8164024 14.5746282,12.7402866 C14.2371406,12.6641708 14.3939146,12.1654896 14.3939146,12.1654896 C14.3939146,12.1654896 15.0938116,11.9712715 15.4956293,12.1813266 C15.8975698,12.3913816 16.1908612,13.1260218 16.1908612,13.1260218" id="Fill-38" fill="#141137"></path>
                            <path d="M26.3055088,11.9497872 C25.7450756,11.7006921 25.328403,11.9497872 25.328403,11.9497872 C25.328403,11.9497872 24.8357373,10.5170915 23.372227,9.22778811 C23.4711775,9.75372371 23.525318,10.2931637 23.525318,10.8441439 C23.525318,14.9783365 20.6249378,18.5071631 16.53887,19.9103946 C20.7367789,20.4042879 23.8883412,15.4983793 23.8883412,15.4983793 C23.8883412,15.4983793 24.1218448,16.0732991 24.8655698,16.012652 C26.1255318,15.9097729 26.5894699,14.7889064 26.7784089,14.1611966 C26.9319909,13.6509753 26.9997585,12.2583017 26.3055088,11.9497872" id="Fill-40" fill="#2F94D1"></path>
                            <path d="M13.6283861,15.1126073 C13.6283861,15.1126073 14.4981932,15.9050709 16.3026286,15.8840777 C19.6132975,15.8455287 20.3140539,15.5046036 20.3140539,15.5046036 C20.3140539,15.5046036 19.4912667,17.5554333 17.151197,17.4783353 C14.8112501,17.4012374 14.5798335,17.1698208 14.5798335,17.1698208 C14.5798335,17.1698208 14.6440409,16.9447882 14.5540524,16.629767 C14.376899,16.0096688 13.6283861,15.1126073 13.6283861,15.1126073" id="Fill-42" fill="#141137"></path>
                            <path d="M20.2264225,1.22214961 C15.4098886,0.616292418 11.1433526,3.00178604 10.6970931,6.55025537 C10.4917032,8.18306197 10.9946813,9.46217566 12.21413,10.7669477 C15.2742306,9.90254237 16.9712445,8.46996942 16.9712445,8.46996942 C16.9712445,8.46996942 18.330157,9.96969615 23.1511106,12.3154131 C23.9904714,12.7238603 24.9813272,12.6829788 25.783244,12.2050452 C27.1480493,11.3917111 27.9385487,10.3418042 28.1395189,8.74410906 C28.5857785,5.19563972 25.0429565,1.82800679 20.2264225,1.22214961" id="Fill-44" fill="#FEFEFE"></path>
                            <path d="M20.2264225,1.22214961 C19.3359905,1.11006296 18.4647101,1.10097817 17.6325926,1.18188189 C17.7578154,1.19366757 17.8831609,1.20631261 18.0091202,1.22214961 C22.825777,1.82800679 26.368599,5.19563972 25.9223394,8.74410906 C25.7213692,10.3418042 24.9308698,11.3917111 23.5659417,12.2050452 C23.4673595,12.2638508 23.3659536,12.3156587 23.2623379,12.3610826 C24.077268,12.7146528 25.0160704,12.6622311 25.783244,12.2050452 C27.1480493,11.3917111 27.9385487,10.3418042 28.1395189,8.74410906 C28.5857785,5.19563972 25.0429565,1.82800679 20.2264225,1.22214961" id="Fill-46" fill="#BBBDBF"></path>
                            <path d="M18.0216425,8.27772793 C18.0216425,9.05987912 17.5513206,9.69385005 16.9712445,9.69385005 C16.3910457,9.69385005 15.9208465,9.05987912 15.9208465,8.27772793 C15.9208465,7.49557673 16.3910457,6.86148304 16.9712445,6.86148304 C17.5513206,6.86148304 18.0216425,7.49557673 18.0216425,8.27772793" id="Fill-48" fill="#F26D31"></path>
                            <path d="M7.58227508,36.0257416 C7.58227508,36.0257416 4.33397208,29.4627184 4.4966389,27.1095126 C4.76218482,23.2684885 8.14749625,21.5336622 8.14749625,21.5336622 C8.14749625,21.5336622 4.29751015,23.2684885 3.57355071,26.1470161 C2.58208108,30.0894461 7.58227508,36.0257416 7.58227508,36.0257416" id="Fill-50" fill="#2F94D1"></path>
                            <path d="M29.230823,30.5978382 C29.230823,30.5978382 27.9450799,30.3703502 26.879336,28.7796528 C26.5215917,28.2456145 25.7822864,26.0916603 25.7822864,26.0916603 C25.7822864,26.0916603 24.9220551,28.7066062 26.0035133,30.926241 C26.6340467,32.2207006 27.1682077,32.4634118 27.1682077,32.4634118 L29.230823,30.5978382 Z" id="Fill-52" fill="#2F94D1"></path>
                            <path d="M7.00620127,31.0289114 C8.48063791,28.4751037 16.8043913,32.4530134 18.2871762,34.2784421 C16.6107871,31.78921 10.2052745,24.7197712 7.00620127,29.365413 C6.50113613,30.0987027 6.45423897,31.043398 6.63507538,32.0001244 C6.70885859,31.6589538 6.8305211,31.3331291 7.00620127,31.0289114" id="Fill-54" fill="#2F94D1"></path>
                            <path d="M23.3439782,46.9385616 C19.9839569,46.4929158 18.3040076,48.069986 17.3928278,46.0141229 C17.0163002,45.1642041 16.8019483,41.0251008 16.8347272,40.9519314 C16.9090015,40.7866865 13.6680645,38.7701089 11.2452496,39.2237345 C10.1041265,39.4373498 9.60335819,40.4618439 9.61563493,40.4894665 C9.70525514,40.690314 10.6925507,52.4929277 21.1325688,49.4586083 C27.8823212,47.496785 18.9725989,52.5958068 20.9157615,54.4066261 C21.1433723,54.6187682 21.5001344,54.4993155 21.4684604,54.1896961 C21.1840083,51.41282 31.2326439,47.985031 23.3439782,46.9385616" id="Fill-56" fill="#FEFEFE"></path>
                            <path d="M17.3928769,46.0141475 C17.0162265,45.1642287 16.8019974,41.0250026 16.8347763,40.9519559 C16.8615396,40.8921682 16.4556705,40.5910197 15.8121237,40.2519361 L15.8121237,41.1832498 C15.8395008,42.0742956 16.0437858,45.2777885 16.3701016,46.0141475 C16.8499994,47.0969561 17.5437581,47.1717214 18.5833526,47.0652821 C18.0807428,46.9755391 17.6943937,46.694279 17.3928769,46.0141475" id="Fill-58" fill="#BBBDBF"></path>
                            <path d="M20.3140539,1.74965663 C20.3140539,1.74965663 18.3200656,1.85216742 16.97122,3.47859012 C16.5897816,3.93847685 17.632568,1.18185734 17.632568,1.18185734 L19.0585115,1.26312937 L20.3140539,1.74965663 Z" id="Fill-60" fill="#BBBDBF"></path>
                            <path d="M42.5568943,46.9309991 C42.9202859,46.2523408 43.3929404,45.0948896 43.9747352,43.4590139 C44.1079379,43.3984895 44.422959,42.5565506 44.9199215,40.9322149 C45.222666,40.3507885 45.922563,38.1755954 47.0194898,34.4065131 C48.1159256,30.6381673 48.6705888,27.8630099 48.6824972,26.0812864 C48.6945284,25.4516124 48.4703551,24.8154316 48.0099773,24.1731125 C47.9012054,24.1731125 47.7919424,24.0577111 47.6828022,23.8273995 L47.6828022,23.7728907 C47.6828022,23.3975907 48.1793964,22.9793222 49.1733213,22.5185761 C49.2944928,22.4580517 49.6397148,22.4094358 50.2096011,22.3732194 C51.2879901,22.4823597 52.1091813,22.9187978 52.6724382,23.6819201 C53.2361861,24.4454106 53.5056606,25.6635089 53.4813527,27.3356011 C53.3601812,29.7473669 52.8147256,32.3952145 51.8454769,35.2792666 C50.7061953,38.7936066 49.3916018,42.2293754 47.9012054,45.5857138 C47.7069874,46.0582455 47.4101358,46.6886562 47.0101595,47.4760864 C46.610306,48.2640077 45.9316478,49.1305001 44.9744303,50.0754409 C44.01709,51.0207499 42.5809568,51.6268527 40.6663989,51.8933807 C38.3275569,52.0627998 36.6978195,51.6144532 35.7766956,50.5479726 C34.9890199,49.5911234 34.6559519,48.488181 34.7768778,47.2400047 C34.898172,45.9919511 35.3040411,45.0586733 35.9948533,44.4405393 C36.6372952,43.9439451 37.3245472,43.7045487 38.0579597,43.7227183 C38.7911267,43.7408878 39.2909128,44.0346703 39.5575637,44.6040655 C38.2971106,45.6828228 37.7154386,46.9853851 37.8124249,48.5124889 C38.0063974,49.4210905 38.5760382,49.8755755 39.5212245,49.8755755 C40.7450929,49.8755755 41.7570646,48.89405 42.5568943,46.9309991" id="Fill-62" fill="#141137"></path>
                            <path d="M59.0981337,25.7726246 L59.2617827,25.7726246 C59.7706536,25.7846558 60.261355,26.0697217 60.7340095,26.6268403 C60.8431498,26.8448752 60.8913973,27.0751868 60.8794889,27.317407 C60.7826254,28.0080964 60.400696,28.687123 59.7343145,29.3533817 C59.3586462,29.6806797 58.9344848,29.8685138 58.461953,29.9167614 L58.0440527,29.9167614 C57.2076383,29.6744185 56.7288454,29.1052688 56.6080423,28.2083301 C56.6443814,27.3841924 57.0621589,26.7298421 57.8619886,26.2449108 C57.8738971,26.1480473 58.2860273,25.9906595 59.0981337,25.7726246 M50.6455973,49.257417 C50.5487338,48.1552112 50.9063553,46.6157078 51.7182162,44.6403801 C52.735958,42.0472868 53.6874055,39.387408 54.5720675,36.6608665 C54.8992426,35.1823786 54.9656598,34.2371922 54.7719328,33.825062 L54.5358511,33.4797173 C54.7901024,32.8860141 55.4262831,32.6070865 56.4443933,32.6433029 L56.498902,32.6433029 C58.3893975,32.6800104 59.3041375,33.9705414 59.2436131,36.5153871 L59.2436131,36.6242818 C59.1710576,38.3453582 58.2559493,41.1262857 56.498902,44.9679236 C55.662856,47.1250698 55.238449,48.4213709 55.2264178,48.8578091 C55.1900786,49.3546488 55.4081136,49.5845922 55.8807681,49.5483758 C56.2808671,49.4392356 56.6925063,49.1787231 57.1169132,48.7667157 C58.0622223,47.5791865 58.862052,46.3977957 59.5164023,45.2221749 C59.7100065,45.1130347 59.8072383,45.4101318 59.8072383,46.113098 C59.831178,46.6462769 59.2193052,47.7612506 57.9711289,49.4576507 C56.7230753,51.0086942 55.1900786,51.7417384 53.3721388,51.6569061 C51.736263,51.6934908 50.8272931,50.8937839 50.6455973,49.257417" id="Fill-64" fill="#141137"></path>
                            <path d="M68.9412812,45.5674951 C69.456045,44.2105469 70.004447,42.8351835 70.5862418,41.4411595 C71.7009699,38.4121191 72.228256,36.5578401 72.1677316,35.8791818 C72.1430554,35.1036601 71.7920633,34.7098222 71.1132823,34.6974227 C69.6592251,34.5519433 67.9021778,36.7276274 65.8418951,41.2231246 C65.7570628,41.3323876 65.2027679,42.6926506 64.1787649,45.304159 C63.1543936,47.9157902 62.7032234,49.4334409 62.8243948,49.8574796 C62.9212583,50.1969315 63.0666149,50.4029352 63.2607102,50.4754908 C63.1395388,51.1298411 62.5091281,51.5052638 61.3702148,51.6024956 C60.2552412,51.5052638 59.4916278,51.178457 59.0799887,50.6209701 C58.6683496,50.0638516 58.5047006,49.2940999 58.5892874,48.3122062 C58.6377805,47.5490839 59.2649992,45.6374725 60.470698,42.5776175 C61.6763967,39.5176397 62.3636487,37.200282 62.5338044,35.6245622 C62.5701435,35.4185585 62.5881903,35.2248315 62.5881903,35.0427675 C62.5519739,34.5461733 62.3517403,34.2614756 61.9883487,34.1885518 C62.0002572,33.7405735 62.2247988,33.4009988 62.6607459,33.1706872 C63.0970613,32.9407438 63.6608092,32.8069273 64.3514987,32.7707109 C66.0965147,33.0615469 66.9626388,34.1040878 66.9507304,35.8973514 L66.9325608,36.1881874 L67.0598706,36.1881874 C68.7320856,33.813129 70.5739651,32.6375083 72.5856319,32.6618162 C73.3735532,32.6618162 74.1550905,32.9799066 74.9306123,33.6160873 C75.706134,34.2523908 76.1181415,35.3582797 76.1667574,36.9332629 C76.190697,38.1574995 75.8033658,39.9268235 75.0035361,42.2409892 C74.7003006,43.0168793 74.2458157,44.2044085 73.6399585,45.8039451 C73.0339785,47.4036045 72.7248502,48.4214692 72.7129417,48.8577845 C72.6767253,49.354747 72.8946375,49.5846904 73.367292,49.5483512 C73.767391,49.439211 74.2490076,48.9850944 74.8123873,48.1852646 C75.3760125,47.3854349 75.9850616,46.3977711 76.6394119,45.2221503 C76.8330161,45.1130101 76.9302479,45.4101073 76.9302479,46.1130735 C76.9543103,46.6462523 76.4028391,47.761226 75.275957,49.4576261 C74.1489522,51.0086696 72.7372497,51.7417139 71.0408495,51.6568816 C69.404851,51.6934663 68.4958811,50.8937593 68.3141853,49.2575152 C68.2169535,48.1551866 68.4259036,46.9248116 68.9412812,45.5674951" id="Fill-66" fill="#141137"></path>
                            <path d="M86.0100276,45.5674951 C86.5246686,44.2105469 87.0730707,42.8351835 87.6548655,41.4411595 C88.7695936,38.4121191 89.2968796,36.5578401 89.2363553,35.8791818 C89.211679,35.1036601 88.860687,34.7098222 88.181906,34.6974227 C86.7278487,34.5519433 84.9708015,36.7276274 82.9105187,41.2231246 C82.8256865,41.3323876 82.2713916,42.6926506 81.2473886,45.304159 C80.2230173,47.9157902 79.771847,49.4334409 79.8930185,49.8574796 C79.989882,50.1969315 80.1352386,50.4029352 80.3294566,50.4754908 C80.2081624,51.1298411 79.5777518,51.5052638 78.4388385,51.6024956 C77.3238648,51.5052638 76.5602515,51.178457 76.1486124,50.6209701 C75.7368504,50.0638516 75.5733243,49.2940999 75.657911,48.3122062 C75.7064041,47.5490839 76.3336228,45.6374725 77.5393216,42.5776175 C78.7450204,39.5176397 79.4323951,37.200282 79.6025508,35.6245622 C79.6387672,35.4185585 79.6569367,35.2248315 79.6569367,35.0427675 C79.6205976,34.5461733 79.4203639,34.2614756 79.0569724,34.1885518 C79.0688808,33.7405735 79.2934224,33.4009988 79.7294923,33.1706872 C80.1658077,32.9407438 80.7294329,32.8069273 81.4199996,32.7707109 C83.1651384,33.0615469 84.0313852,34.1040878 84.019354,35.8973514 L84.0013072,36.1881874 L84.128617,36.1881874 C85.8007092,33.813129 87.6425887,32.6375083 89.6542556,32.6618162 C90.4421768,32.6618162 91.2238369,32.9799066 91.9992359,33.6160873 C92.7747577,34.2523908 93.1867651,35.3582797 93.235381,36.9332629 C93.2593207,38.1574995 92.8719895,39.9268235 92.0721598,42.2409892 C91.7689243,43.0168793 91.3144393,44.2044085 90.7085821,45.8039451 C90.1026022,47.4036045 89.7934738,48.4214692 89.7815654,48.8577845 C89.745349,49.354747 89.9632611,49.5846904 90.4359157,49.5483512 C90.8360147,49.439211 91.3176312,48.9850944 91.8810109,48.1852646 C92.4446361,47.3854349 93.0536852,46.3977711 93.7080356,45.2221503 C93.9017625,45.1130101 93.9988716,45.4101073 93.9988716,46.1130735 C94.022934,46.6462523 93.4714628,47.761226 92.3445807,49.4576261 C91.2175758,51.0086696 89.8058733,51.7417139 88.1094732,51.6568816 C86.4734746,51.6934663 85.5645047,50.8937593 85.3829317,49.2575152 C85.2856999,48.1551866 85.4945273,46.9248116 86.0100276,45.5674951" id="Fill-68" fill="#141137"></path>
                            <g id="Group-72" transform="translate(92.566630, 25.658390)">
                                <mask id="mask-7" fill="white">
                                    <use xlink:href="#path-6"></use>
                                </mask>
                                <g id="Clip-71"></g>
                                <path d="M8.52137214,0.114235079 L8.68489833,0.114235079 C9.19389203,0.126266285 9.68471615,0.41133222 10.1572479,0.968450745 C10.2665109,1.18648567 10.3146358,1.41679734 10.3027273,1.65901745 C10.2058638,2.34970692 9.82381163,3.02873348 9.15767564,3.69499224 C8.78176182,4.02229017 8.35784594,4.21012431 7.88506863,4.2583719 L7.46729112,4.2583719 C6.63087673,4.01602903 6.15208382,3.4468793 6.03128068,2.54994057 C6.06761983,1.72580292 6.48539734,1.0714526 7.28522705,0.58652132 C7.29713548,0.48965783 7.70926569,0.332270006 8.52137214,0.114235079 M0.068835689,23.5990275 C-0.0280278006,22.4968217 0.329593676,20.9573183 1.14145458,18.9819906 C2.15919645,16.3888973 3.1106439,13.7290185 3.99530589,11.002477 C4.32248105,9.52398905 4.38889822,8.57880273 4.19517124,8.16667252 L3.9590895,7.82132779 C4.21334082,7.22762458 4.84952155,6.94869701 5.86775448,6.9849134 L5.92214045,6.9849134 C7.81263586,7.02162085 8.72737586,8.31215191 8.66685152,10.8569976 L8.66685152,10.9658923 C8.59429598,12.6869687 7.67918768,15.4678962 5.92214045,19.3095341 C5.08609436,21.4666803 4.66168741,22.7629814 4.6496562,23.1994196 C4.61343982,23.6962593 4.83135198,23.9262027 5.30400652,23.8899863 C5.70410552,23.7808461 6.11574466,23.5203336 6.54015161,23.1083262 C7.4854607,21.920797 8.28516763,20.7394061 8.93951795,19.5637854 C9.13324493,19.4546452 9.23047672,19.7517423 9.23047672,20.4547085 C9.25441636,20.9878874 8.64254357,22.102861 7.39436728,23.7992612 C6.14619098,25.3503047 4.61343982,26.0833489 2.79537718,25.9985166 C1.15950139,26.0351013 0.250531462,25.2353944 0.068835689,23.5990275" id="Fill-70" fill="#141137" mask="url(#mask-7)"></path>
                            </g>
                            <polygon id="Fill-73" fill="#2F94D1" points="66.4153171 24.8201091 66.4153171 29.1986089 67.918113 29.1986089 67.918113 29.9349678 65.6329204 29.9349678 65.6329204 24.8201091"></polygon>
                            <path d="M74.558492,27.3813074 C74.558492,26.2463227 73.7839524,25.4490711 72.679905,25.4490711 C71.5753666,25.4490711 70.8010725,26.2463227 70.8010725,27.3813074 C70.8010725,28.5162921 71.5753666,29.313912 72.679905,29.313912 C73.7839524,29.313912 74.558492,28.5162921 74.558492,27.3813074 M75.3405204,27.3813074 C75.3405204,28.8844716 74.2135155,30.0346795 72.679905,30.0346795 C71.1459262,30.0346795 70.0189213,28.8844716 70.0189213,27.3813074 C70.0189213,25.8785115 71.1459262,24.7284263 72.679905,24.7284263 C74.2135155,24.7284263 75.3405204,25.8785115 75.3405204,27.3813074" id="Fill-75" fill="#2F94D1"></path>
                            <polygon id="Fill-77" fill="#2F94D1" points="79.5803299 25.556468 79.5803299 29.9349678 78.7983014 29.9349678 78.7983014 25.556468 77.6248905 25.556468 77.6248905 24.8201091 80.7538636 24.8201091 80.7538636 25.556468"></polygon>
                            <polygon id="Fill-79" fill="#2F94D1" points="84.9398886 25.556468 84.9398886 29.9349678 84.157983 29.9349678 84.157983 25.556468 82.9844493 25.556468 82.9844493 24.8201091 86.1134224 24.8201091 86.1134224 25.556468"></polygon>
                            <path d="M92.7841739,27.3813074 C92.7841739,26.2463227 92.0097571,25.4490711 90.905587,25.4490711 C89.8011713,25.4490711 89.0267545,26.2463227 89.0267545,27.3813074 C89.0267545,28.5162921 89.8011713,29.313912 90.905587,29.313912 C92.0097571,29.313912 92.7841739,28.5162921 92.7841739,27.3813074 M93.5662024,27.3813074 C93.5662024,28.8844716 92.4391975,30.0346795 90.905587,30.0346795 C89.3717309,30.0346795 88.2446033,28.8844716 88.2446033,27.3813074 C88.2446033,25.8785115 89.3717309,24.7284263 90.905587,24.7284263 C92.4391975,24.7284263 93.5662024,25.8785115 93.5662024,27.3813074" id="Fill-81" fill="#2F94D1"></path>
                        </g>
                    </g>
                </g>
            </g>
        </g>
    </g>
</svg>